<?xml version="1.0" encoding="UTF-8"?>
<svg version="1.1" xmlns="http://www.w3.org/2000/svg" width="1024" height="1024">
<path d="M0 0 C337.92 0 675.84 0 1024 0 C1024 337.92 1024 675.84 1024 1024 C686.08 1024 348.16 1024 0 1024 C0 686.08 0 348.16 0 0 Z " fill="#080808" transform="translate(0,0)"/>
<path d="M0 0 C2.31 0.33 4.62 0.66 7 1 C7.97130859 1.13768799 8.94261719 1.27537598 9.94335938 1.41723633 C33.41071947 4.77338488 33.41071947 4.77338488 44.4453125 7.984375 C48.74672718 9.21335062 53.08034411 10.2401677 57.4375 11.25 C58.1910376 11.4253125 58.9445752 11.600625 59.72094727 11.78125 C61.48018534 12.1894278 63.24002491 12.59501185 65 13 C65 13.66 65 14.32 65 15 C66.794375 15.2165625 66.794375 15.2165625 68.625 15.4375 C78.62318005 17.66458276 87.34085764 24.887804 94.15234375 32.234375 C96.7030731 34.67185844 99.5349131 36.06552207 102.6484375 37.67578125 C113.71676016 43.90860747 123.96305185 54.25555808 129 66 C129 66.66 129 67.32 129 68 C129.66 68 130.32 68 131 68 C132.1334376 70.80934934 133.25681938 73.62208095 134.375 76.4375 C134.69210937 77.22060547 135.00921875 78.00371094 135.3359375 78.81054688 C141.07708185 93.34281851 142.35651215 108.80539838 142.26074219 124.30908203 C142.24989525 126.39514473 142.26078599 128.48036718 142.2734375 130.56640625 C142.28345503 140.02996214 141.27062351 148.15558834 137.77734375 156.984375 C136.97947262 159.05322677 136.29755745 161.13733365 135.625 163.25 C130.25270113 179.4794055 130.25270113 179.4794055 125 186 C124.34 186 123.68 186 123 186 C123.04713135 187.01199463 123.04713135 187.01199463 123.09521484 188.04443359 C123.22131085 191.15426974 123.29839964 194.2635665 123.375 197.375 C123.42527344 198.43589844 123.47554687 199.49679687 123.52734375 200.58984375 C123.65624637 207.59355268 122.56550728 211.79706705 118.62646484 217.58300781 C115.96440564 221.53893487 114.11418223 225.86565631 112.125 230.1875 C109.20980993 236.42126046 106.24002838 242.5868759 102.9375 248.625 C99.56134594 254.80569764 96.51387421 261.11011079 93.58374023 267.51416016 C89.7096281 275.87971356 85.33997821 283.80226337 81 292 C67.8 292 54.6 292 41 292 C40.9906543 286.58505127 40.98130859 281.17010254 40.97167969 275.59106445 C40.93788916 257.68569047 40.88252847 239.78043095 40.81609726 221.87514973 C40.77635134 211.02084937 40.74393626 200.16662106 40.72900391 189.31225586 C40.71596433 179.8474596 40.68894089 170.38282213 40.64538693 160.91811532 C40.62282397 155.91034775 40.60708622 150.90277567 40.60811615 145.89495277 C40.60886582 141.1728079 40.59079249 136.45109431 40.55883217 131.72906113 C40.55037575 130.0042677 40.548554 128.27942566 40.55419731 126.55462074 C40.66508142 109.77289193 40.66508142 109.77289193 33.5625 95 C26.50470603 90.3186278 17.51695421 87.97811122 9.4140625 85.7734375 C6.19454636 84.74194204 3.10737189 83.33173081 0 82 C0 54.94 0 27.88 0 0 Z " fill="#FDFDFD" transform="translate(404,474)"/>
<path d="M0 0 C11.88 0 23.76 0 36 0 C36 122.43 36 244.86 36 371 C83.85 371 131.7 371 181 371 C181 382.55 181 394.1 181 406 C121.27 406 61.54 406 0 406 C0 272.02 0 138.04 0 0 Z " fill="#FCFCFC" transform="translate(602,300)"/>
<path d="M0 0 C14.85 0 29.7 0 45 0 C45 85.14 45 170.28 45 258 C37.1998486 256.88569266 37.1998486 256.88569266 34.25 255.1875 C31.20331035 253.55638508 28.20616595 252.31095259 24.9375 251.1875 C18.94977788 249.0751647 13.26908608 246.45040759 7.5546875 243.69921875 C5.51589833 242.72463272 3.46448434 241.77380458 1.3828125 240.89453125 C-16.59465998 232.9953388 -30.68797017 216.9256133 -38 199 C-40.41454319 191.38490226 -40.35068342 183.95792092 -40.390625 176.01953125 C-40.55460952 168.84976359 -42.01095508 163.4806853 -45 157 C-45.57648648 155.48441311 -46.14129816 153.96426253 -46.6875 152.4375 C-46.91824219 151.79683594 -47.14898437 151.15617188 -47.38671875 150.49609375 C-55.47081613 117.5933025 -43.86348118 86.49816229 -29.375 57.625 C-29.01962158 56.91512939 -28.66424316 56.20525879 -28.2980957 55.47387695 C-23.73429293 46.35961887 -19.10925001 37.28407403 -14.3215332 28.28491211 C-10.4087005 20.92516007 -6.69662192 13.47007894 -3 6 C-2.01 4.02 -1.02 2.04 0 0 Z " fill="#FDFDFD" transform="translate(320,283)"/>
<path d="M0 0 C0.83848804 1.45537568 1.67063934 2.91440373 2.5 4.375 C2.9640625 5.18710937 3.428125 5.99921875 3.90625 6.8359375 C5 9 5 9 5 11 C18.2 11 31.4 11 45 11 C45.25 24.25 45.25 24.25 45.29785156 28.41113281 C45.3284668 29.49749023 45.35908203 30.58384766 45.390625 31.703125 C45.4220459 33.36843262 45.4220459 33.36843262 45.45410156 35.06738281 C46.11722865 38.62976323 47.17391646 39.79893118 50 42 C52.9155949 43.08052685 52.9155949 43.08052685 56.0625 43.6875 C57.10535156 43.91824219 58.14820313 44.14898438 59.22265625 44.38671875 C60.13917969 44.58910156 61.05570312 44.79148437 62 45 C63.485 45.495 63.485 45.495 65 46 C71.6 46.33 78.2 46.66 85 47 C85 76.37 85 105.74 85 136 C57.28 136 29.56 136 1 136 C-0.32 132.7 -1.64 129.4 -3 126 C-3.87277697 124.2688325 -4.78199394 122.55477523 -5.75 120.875 C-8.26228019 116.39329413 -10.59999221 111.85458931 -12.875 107.25 C-15.42761362 102.08966295 -18.06154004 96.9949908 -20.8125 91.9375 C-24.91228002 84.38510989 -28.57736756 76.63095272 -32.23168945 68.85522461 C-32.67730225 67.91042236 -33.12291504 66.96562012 -33.58203125 65.9921875 C-33.97624268 65.15026855 -34.3704541 64.30834961 -34.77661133 63.44091797 C-35.9892365 60.92317179 -35.9892365 60.92317179 -37.65112305 58.37548828 C-39 56 -39 56 -39 53 C-39.66 53 -40.32 53 -41 53 C-41 36.17 -41 19.34 -41 2 C-27.07088127 0.73371648 -13.88073907 -0.28851421 0 0 Z " fill="#FBFBFB" transform="translate(321,631)"/>
<path d="M0 0 C20.51342771 -0.32087047 20.51342771 -0.32087047 29.25976562 -0.390625 C35.22754838 -0.4384453 41.19434901 -0.49500199 47.16137695 -0.60351562 C51.9725297 -0.69046117 56.78262949 -0.73827761 61.59450722 -0.75901794 C63.42986953 -0.77379681 65.26517434 -0.80265854 67.10008812 -0.84584045 C81.48575794 -1.17091094 81.48575794 -1.17091094 85.1822052 1.68742371 C86.51918203 3.77813306 87.29598609 5.62922915 88 8 C88.42966064 8.76868408 88.85932129 9.53736816 89.30200195 10.3293457 C90.31177193 12.32071216 91.31775696 14.31357613 92.3125 16.3125 C92.67150391 17.01439453 93.03050781 17.71628906 93.40039062 18.43945312 C96 23.63372024 96 23.63372024 96 27 C96.66 27 97.32 27 98 27 C99.98567708 30.97135417 101.97135417 34.94270833 103.95703125 38.9140625 C104.48393555 39.9669043 104.48393555 39.9669043 105.02148438 41.04101562 C105.83711215 42.67389918 106.64770289 44.30929753 107.45703125 45.9453125 C109.95291261 50.88652573 112.5601002 55.76898111 115.15234375 60.66015625 C127.36254881 83.7736637 124 84.83164887 124 120 C96.28 120 68.56 120 40 120 C39.34 112.41 38.68 104.82 38 97 C34.33612964 88.21066145 34.33612964 88.21066145 28 83 C25.2078097 82.44612994 22.68842063 82.08172087 19.875 81.875 C13.12107783 81.28715863 6.72931774 80.22351232 0 79 C0 52.93 0 26.86 0 0 Z " fill="#FEFDFE" transform="translate(405,283)"/>
<path d="M0 0 C2.14762184 3.22143276 2.561068 4.2595467 2 8 C0 9.8125 0 9.8125 -2 11 C-1.40049704 7.31733897 -0.75241109 3.65456815 0 0 Z " fill="#282727" transform="translate(542,626)"/>
<path d="M0 0 C0.33 0 0.66 0 1 0 C1 1.98 1 3.96 1 6 C1.66 6 2.32 6 3 6 C2.67 8.31 2.34 10.62 2 13 C1.67 13 1.34 13 1 13 C-0.10228696 8.59085217 -0.07654536 4.51617599 0 0 Z " fill="#484747" transform="translate(544,571)"/>
</svg>
